<svg width="1280" height="800" viewBox="0 0 1280 800" fill="none" xmlns="http://www.w3.org/2000/svg">
<rect width="1280" height="800" fill="white"/>
<path d="M349.5 258.138C285.5 186.938 213.167 199.804 185 215.138C211 220.338 233.167 266.304 241 288.638C266.2 339.038 305.167 355.971 321.5 358.138C319.1 484.938 433.833 559.638 491.5 581.138C582.7 631.538 733.833 633.138 798 627.638C918.4 622.438 1080 509.638 1080 499.638L1094 473.638C1089 461.638 1073 454.138 1072 452.138C1055.72 419.581 1046 337.971 1033 303.638C1004.2 242.838 902.667 219.304 855.5 215.138C767.9 204.738 651.333 306.138 604 358.138C566.8 420.538 496.833 441.804 466.5 444.638C405.7 433.438 397.167 382.304 400.5 358.138C456.9 325.338 480.333 270.804 485 247.638C484.2 203.638 508.333 180.638 520.5 174.638C439.7 154.638 372.833 221.971 349.5 258.138Z" stroke="black"/>
</svg>
